<mxfile host="Electron" agent="Mozilla/5.0 (Windows NT 10.0; Win64; x64) AppleWebKit/537.36 (KHTML, like Gecko) draw.io/24.7.8 Chrome/128.0.6613.36 Electron/32.0.1 Safari/537.36" version="24.7.8">
  <diagram name="Страница — 1" id="lUrJt7nCyDDH0BoWokK7">
    <mxGraphModel dx="1434" dy="884" grid="1" gridSize="10" guides="1" tooltips="1" connect="1" arrows="1" fold="1" page="1" pageScale="1" pageWidth="1920" pageHeight="1200" math="0" shadow="0">
      <root>
        <mxCell id="0" />
        <mxCell id="1" parent="0" />
        <mxCell id="FeBbhRt5_IzpEynAfnOW-3" value="" style="whiteSpace=wrap;html=1;aspect=fixed;" vertex="1" parent="1">
          <mxGeometry x="490" y="90" width="760" height="760" as="geometry" />
        </mxCell>
        <mxCell id="FeBbhRt5_IzpEynAfnOW-25" style="edgeStyle=orthogonalEdgeStyle;rounded=0;orthogonalLoop=1;jettySize=auto;html=1;exitX=0.75;exitY=1;exitDx=0;exitDy=0;entryX=0;entryY=0.5;entryDx=0;entryDy=0;" edge="1" parent="1" source="FeBbhRt5_IzpEynAfnOW-1" target="FeBbhRt5_IzpEynAfnOW-6">
          <mxGeometry relative="1" as="geometry" />
        </mxCell>
        <mxCell id="FeBbhRt5_IzpEynAfnOW-26" style="edgeStyle=orthogonalEdgeStyle;rounded=0;orthogonalLoop=1;jettySize=auto;html=1;exitX=0.5;exitY=1;exitDx=0;exitDy=0;entryX=0;entryY=0.5;entryDx=0;entryDy=0;" edge="1" parent="1" source="FeBbhRt5_IzpEynAfnOW-1" target="FeBbhRt5_IzpEynAfnOW-4">
          <mxGeometry relative="1" as="geometry" />
        </mxCell>
        <mxCell id="FeBbhRt5_IzpEynAfnOW-27" style="edgeStyle=orthogonalEdgeStyle;rounded=0;orthogonalLoop=1;jettySize=auto;html=1;exitX=1;exitY=0.75;exitDx=0;exitDy=0;entryX=0.5;entryY=0;entryDx=0;entryDy=0;" edge="1" parent="1" source="FeBbhRt5_IzpEynAfnOW-1" target="FeBbhRt5_IzpEynAfnOW-5">
          <mxGeometry relative="1" as="geometry" />
        </mxCell>
        <mxCell id="FeBbhRt5_IzpEynAfnOW-29" style="edgeStyle=orthogonalEdgeStyle;rounded=0;orthogonalLoop=1;jettySize=auto;html=1;exitX=0;exitY=0.75;exitDx=0;exitDy=0;" edge="1" parent="1" source="FeBbhRt5_IzpEynAfnOW-1" target="FeBbhRt5_IzpEynAfnOW-11">
          <mxGeometry relative="1" as="geometry" />
        </mxCell>
        <mxCell id="FeBbhRt5_IzpEynAfnOW-30" style="edgeStyle=orthogonalEdgeStyle;rounded=0;orthogonalLoop=1;jettySize=auto;html=1;exitX=0.25;exitY=1;exitDx=0;exitDy=0;" edge="1" parent="1" source="FeBbhRt5_IzpEynAfnOW-1" target="FeBbhRt5_IzpEynAfnOW-7">
          <mxGeometry relative="1" as="geometry" />
        </mxCell>
        <mxCell id="FeBbhRt5_IzpEynAfnOW-1" value="Администратор - сотрудник ГАИ" style="shape=actor;whiteSpace=wrap;html=1;fillColor=#60a917;fontColor=#ffffff;strokeColor=#2D7600;" vertex="1" parent="1">
          <mxGeometry x="280" y="160" width="110" height="140" as="geometry" />
        </mxCell>
        <mxCell id="FeBbhRt5_IzpEynAfnOW-4" value="Зафиксировать информацию о новом владельце автомобиля&amp;nbsp;&lt;div&gt;&lt;br&gt;&lt;/div&gt;" style="ellipse;whiteSpace=wrap;html=1;aspect=fixed;fillColor=#a20025;fontColor=#ffffff;strokeColor=#6F0000;" vertex="1" parent="1">
          <mxGeometry x="600" y="200" width="150" height="150" as="geometry" />
        </mxCell>
        <mxCell id="FeBbhRt5_IzpEynAfnOW-5" value="&lt;div&gt;Просмотр информации о зарегистрированных ДТП&lt;/div&gt;&lt;div&gt;&lt;br&gt;&lt;/div&gt;" style="ellipse;whiteSpace=wrap;html=1;aspect=fixed;fillColor=#1ba1e2;fontColor=#ffffff;strokeColor=#006EAF;" vertex="1" parent="1">
          <mxGeometry x="890" y="180" width="150" height="150" as="geometry" />
        </mxCell>
        <mxCell id="FeBbhRt5_IzpEynAfnOW-6" value="Фиксация новых поступивших ДТП" style="ellipse;whiteSpace=wrap;html=1;aspect=fixed;fillColor=#6a00ff;fontColor=#ffffff;strokeColor=#3700CC;" vertex="1" parent="1">
          <mxGeometry x="640" y="410" width="150" height="150" as="geometry" />
        </mxCell>
        <mxCell id="FeBbhRt5_IzpEynAfnOW-7" value="Просмотр ДТП по заданной выборке&lt;div&gt;&lt;br&gt;&lt;/div&gt;" style="ellipse;whiteSpace=wrap;html=1;aspect=fixed;fillColor=#60a917;fontColor=#ffffff;strokeColor=#2D7600;" vertex="1" parent="1">
          <mxGeometry x="850" y="380" width="150" height="150" as="geometry" />
        </mxCell>
        <mxCell id="FeBbhRt5_IzpEynAfnOW-8" value="Регистрация номеров автомобилей в БД как занятых&lt;div&gt;&lt;br&gt;&lt;/div&gt;" style="ellipse;whiteSpace=wrap;html=1;aspect=fixed;fillColor=#f0a30a;fontColor=#000000;strokeColor=#BD7000;" vertex="1" parent="1">
          <mxGeometry x="690" y="580" width="150" height="150" as="geometry" />
        </mxCell>
        <mxCell id="FeBbhRt5_IzpEynAfnOW-11" value="&lt;div&gt;Просмотр свободных и занятых номеров&lt;/div&gt;" style="ellipse;whiteSpace=wrap;html=1;aspect=fixed;fillColor=#76608a;fontColor=#ffffff;strokeColor=#432D57;" vertex="1" parent="1">
          <mxGeometry x="960" y="580" width="150" height="150" as="geometry" />
        </mxCell>
        <mxCell id="FeBbhRt5_IzpEynAfnOW-28" style="edgeStyle=orthogonalEdgeStyle;rounded=0;orthogonalLoop=1;jettySize=auto;html=1;exitX=0.5;exitY=0;exitDx=0;exitDy=0;entryX=0.013;entryY=0.567;entryDx=0;entryDy=0;entryPerimeter=0;" edge="1" parent="1" source="FeBbhRt5_IzpEynAfnOW-1" target="FeBbhRt5_IzpEynAfnOW-8">
          <mxGeometry relative="1" as="geometry" />
        </mxCell>
      </root>
    </mxGraphModel>
  </diagram>
</mxfile>
